<?xml version="1.0" encoding="UTF-8" standalone="no"?>
<!DOCTYPE svg PUBLIC "-//W3C//DTD SVG 1.1//EN" "http://www.w3.org/Graphics/SVG/1.1/DTD/svg11.dtd">
<svg width="100%" height="100%" viewBox="0 0 64 65" version="1.1" xmlns="http://www.w3.org/2000/svg" xmlns:xlink="http://www.w3.org/1999/xlink" xml:space="preserve" xmlns:serif="http://www.serif.com/" style="fill-rule:evenodd;clip-rule:evenodd;stroke-linejoin:round;stroke-miterlimit:2;">
    <rect id="Subheading" x="0" y="0.972" width="64" height="64" style="fill:none;"/>
    <g>
        <g transform="matrix(1.36115,0,0,1.36115,-5.38043,27.6402)">
            <g transform="matrix(43.6724,0,0,43.6724,8.43087,19.1587)">
                <path d="M0.5,0.012c-0.026,-0 -0.047,-0.009 -0.064,-0.026c-0.017,-0.016 -0.025,-0.039 -0.025,-0.069c0,-0.028 0.015,-0.111 0.044,-0.246c-0.017,-0.004 -0.045,-0.006 -0.084,-0.006c-0.039,0 -0.076,0.003 -0.111,0.01c-0.034,0.153 -0.052,0.256 -0.054,0.308c-0.024,0.013 -0.075,0.02 -0.152,0.02l-0.01,0c0.002,-0.029 0.02,-0.117 0.054,-0.263c0.033,-0.146 0.054,-0.256 0.062,-0.329c0,-0.011 -0.003,-0.024 -0.01,-0.038c-0.007,-0.015 -0.013,-0.028 -0.02,-0.037l-0.011,-0.014l0.003,-0.015c0.039,-0.011 0.102,-0.017 0.187,-0.017c0.008,0.013 0.012,0.035 0.012,0.065c0,0.03 -0.015,0.113 -0.045,0.248l0.193,0c0.023,-0.119 0.035,-0.203 0.036,-0.254c0,-0.011 -0.001,-0.021 -0.002,-0.028c0.053,-0.021 0.107,-0.031 0.161,-0.031c0.002,0.004 0.003,0.014 0.003,0.03c0,0.037 -0.016,0.131 -0.048,0.283c-0.033,0.152 -0.049,0.249 -0.049,0.29c0,0.018 0.003,0.027 0.009,0.027c0.006,0 0.026,-0.009 0.061,-0.026l0.018,0.037c-0.059,0.054 -0.112,0.081 -0.158,0.081Z" style="fill-rule:nonzero;"/>
            </g>
            <g transform="matrix(17.6321,0,0,17.6321,38.1718,19.1587)">
                <path d="M0.372,0.018c-0.023,-0 -0.058,-0.014 -0.105,-0.041c-0.047,-0.027 -0.085,-0.044 -0.116,-0.053c-0.023,0.024 -0.045,0.043 -0.066,0.058c-0.021,0.015 -0.035,0.023 -0.042,0.023c-0.007,-0 -0.021,-0.012 -0.04,-0.036c-0.018,-0.023 -0.028,-0.041 -0.028,-0.054c0,-0.012 0.011,-0.03 0.033,-0.053c0.023,-0.023 0.049,-0.034 0.078,-0.034c0.018,0 0.036,0.002 0.053,0.006c0.047,-0.037 0.091,-0.092 0.133,-0.163c0.042,-0.071 0.063,-0.133 0.063,-0.186c0,-0.03 -0.009,-0.054 -0.027,-0.071c-0.018,-0.017 -0.04,-0.025 -0.066,-0.025c-0.025,-0 -0.05,0.008 -0.074,0.025c-0.025,0.017 -0.046,0.04 -0.063,0.069l-0.046,-0.02c0.013,-0.042 0.044,-0.081 0.091,-0.118c0.047,-0.037 0.099,-0.055 0.157,-0.055c0.057,0 0.102,0.016 0.135,0.047c0.032,0.031 0.048,0.071 0.048,0.118c0,0.034 -0.01,0.071 -0.029,0.111c-0.02,0.041 -0.045,0.079 -0.076,0.116c-0.057,0.067 -0.115,0.124 -0.172,0.17c0.083,0.023 0.148,0.034 0.193,0.034c0.013,-0 0.022,-0.004 0.028,-0.011c0.006,-0.007 0.015,-0.023 0.028,-0.048l0.033,0.007c-0.007,0.123 -0.048,0.184 -0.123,0.184Z" style="fill-rule:nonzero;"/>
            </g>
        </g>
    </g>
</svg>
