<?xml version="1.0" encoding="UTF-8" standalone="no"?>
<!DOCTYPE svg PUBLIC "-//W3C//DTD SVG 1.1//EN" "http://www.w3.org/Graphics/SVG/1.1/DTD/svg11.dtd">
<svg width="100%" height="100%" viewBox="0 0 64 64" version="1.1" xmlns="http://www.w3.org/2000/svg" xmlns:xlink="http://www.w3.org/1999/xlink" xml:space="preserve" xmlns:serif="http://www.serif.com/" style="fill-rule:evenodd;clip-rule:evenodd;stroke-linejoin:round;stroke-miterlimit:2;">
    <rect id="Title" x="0" y="0" width="64" height="64" style="fill:none;"/>
    <g>
        <path d="M22.192,10.808l19.854,0.654l5.588,-0.119c0.119,0.832 0.178,1.704 0.178,2.616c0,0.911 -0.158,1.565 -0.475,1.961c-0.317,0.396 -0.892,0.595 -1.724,0.595c-0.079,-0 -2.873,-0.258 -8.382,-0.773c-0.158,1.783 -0.753,4.835 -1.783,9.154c-1.031,4.32 -2.021,8.937 -2.972,13.851c-0.952,4.914 -1.447,9.333 -1.487,13.256c-1.545,0.793 -4.716,1.189 -9.511,1.189l-0.416,0c0,-2.061 1.13,-8.203 3.389,-18.428c2.258,-10.224 3.388,-16.446 3.388,-18.665c-0,-0.159 -0.04,-0.436 -0.119,-0.833l-2.378,0c-3.249,0 -5.746,0.496 -7.49,1.486c-0.911,-1.188 -1.466,-2.932 -1.664,-5.231c1.347,-0.475 3.348,-0.713 6.004,-0.713Z" style="fill-rule:nonzero;"/>
    </g>
</svg>
