<svg aria-hidden="true" style="position: absolute; width: 0; height: 0; overflow: hidden;" version="1.1"
    xmlns="http://www.w3.org/2000/svg" xmlns:xlink="http://www.w3.org/1999/xlink">
    <defs>
        <symbol id="icon-Heading" viewBox="0 0 32 32" fill="currentColor">
            <path
                d="M17.909 26.73c-0.773 0-1.397-0.267-1.902-0.773-0.505-0.476-0.743-1.159-0.743-2.051 0-0.832 0.446-3.299 1.308-7.312-0.505-0.119-1.338-0.178-2.497-0.178s-2.259 0.089-3.299 0.297c-1.011 4.548-1.546 7.609-1.605 9.154-0.713 0.386-2.229 0.594-4.518 0.594h-0.297c0.059-0.862 0.594-3.477 1.605-7.817 0.981-4.339 1.605-7.609 1.843-9.779 0-0.327-0.089-0.713-0.297-1.129-0.208-0.446-0.386-0.832-0.594-1.1l-0.327-0.416 0.089-0.446c1.159-0.327 3.032-0.505 5.558-0.505 0.238 0.386 0.357 1.040 0.357 1.932s-0.446 3.359-1.338 7.371h5.736c0.684-3.537 1.040-6.034 1.070-7.549 0-0.327-0.030-0.624-0.059-0.832 1.575-0.624 3.18-0.921 4.785-0.921 0.059 0.119 0.089 0.416 0.089 0.892 0 1.1-0.476 3.894-1.427 8.411-0.981 4.518-1.456 7.401-1.456 8.619 0 0.535 0.089 0.802 0.267 0.802s0.773-0.267 1.813-0.773l0.535 1.1c-1.754 1.605-3.329 2.407-4.696 2.407z">
            </path>
            <path
                d="M24.489 26.409h-0.12c0.012-0.588 0.24-1.836 0.684-3.756 0.444-1.908 0.66-3.060 0.66-3.432 0-0.18 0-0.3-0.012-0.336-0.444 0.24-0.924 0.624-1.44 1.14-0.096-0.048-0.192-0.132-0.3-0.252-0.096-0.132-0.168-0.24-0.216-0.336l-0.072-0.144 2.004-1.284c0.588-0.108 1.2-0.156 1.824-0.156 0.096 0.156 0.144 0.42 0.144 0.768s-0.096 0.948-0.3 1.824c-0.204 0.864-0.408 1.836-0.624 2.904s-0.336 2.004-0.36 2.82c-0.288 0.156-0.912 0.24-1.872 0.24z">
            </path>
        </symbol>
        <symbol id="icon-List" viewBox="0 0 32 32">
            <path
                d="M9.992 12.213c0 0.808-0.655 1.463-1.463 1.463s-1.463-0.655-1.463-1.463c0-0.808 0.655-1.463 1.463-1.463s1.463 0.655 1.463 1.463z">
            </path>
            <path d="M11.602 11.198h13.332v2.029h-13.332v-2.029z"></path>
            <path
                d="M9.992 16c0 0.808-0.655 1.463-1.463 1.463s-1.463-0.655-1.463-1.463c0-0.808 0.655-1.463 1.463-1.463s1.463 0.655 1.463 1.463z">
            </path>
            <path d="M11.602 14.986h13.332v2.029h-13.332v-2.029z"></path>
            <path
                d="M9.992 19.787c0 0.808-0.655 1.463-1.463 1.463s-1.463-0.655-1.463-1.463c0-0.808 0.655-1.463 1.463-1.463s1.463 0.655 1.463 1.463z">
            </path>
            <path d="M11.602 18.773h13.332v2.029h-13.332v-2.029z"></path>
        </symbol>
        <symbol id="icon-Paragraph" viewBox="0 0 32 32">
            <path
                d="M9.096 25.992c-0.097-0.234-0.146-0.751-0.146-1.551s0.381-2.951 1.141-6.453c0.761-3.502 1.142-6.2 1.142-8.092 0-0.371-0.088-0.766-0.263-1.185s-0.361-0.746-0.556-0.981l-0.263-0.322 0.030-0.381c0.917-0.292 2.536-0.439 4.858-0.439 0.215 0.41 0.351 0.985 0.41 1.727 1.502-1.229 2.756-1.844 3.76-1.844s1.815 0.419 2.429 1.258c0.615 0.839 0.922 2.068 0.922 3.687 0 2.829-0.517 4.931-1.551 6.307s-2.341 2.063-3.921 2.063c-0.82 0-1.503-0.117-2.049-0.351l-0.293-0.117 0.205-1.141c0.176 0.039 0.381 0.059 0.615 0.059 0.507 0 0.951-0.234 1.331-0.703s0.669-1.063 0.863-1.785c0.39-1.444 0.585-2.78 0.585-4.009 0-1.756-0.361-2.634-1.083-2.634-0.566 0-1.17 0.225-1.814 0.673-0.078 1.366-0.478 3.756-1.2 7.17s-1.083 6.165-1.083 8.253c-1.054 0.429-2.409 0.693-4.068 0.79z">
            </path>
        </symbol>
        <symbol id="icon-Subheading" viewBox="0 0 32 32">
            <path
                d="M17.633 26.797c-0.761 0-1.375-0.263-1.873-0.761-0.498-0.468-0.732-1.141-0.732-2.019 0-0.819 0.439-3.248 1.288-7.199-0.498-0.117-1.317-0.176-2.458-0.176s-2.224 0.088-3.248 0.293c-0.995 4.478-1.522 7.492-1.58 9.014-0.702 0.38-2.195 0.585-4.448 0.585h-0.293c0.059-0.849 0.585-3.424 1.58-7.697 0.966-4.273 1.58-7.492 1.814-9.628 0-0.322-0.088-0.702-0.293-1.112-0.205-0.439-0.38-0.819-0.585-1.083l-0.322-0.41 0.088-0.439c1.141-0.322 2.985-0.497 5.473-0.497 0.234 0.38 0.351 1.024 0.351 1.902s-0.439 3.307-1.317 7.258h5.648c0.673-3.483 1.024-5.941 1.054-7.433 0-0.322-0.029-0.615-0.059-0.819 1.551-0.615 3.131-0.907 4.712-0.907 0.059 0.117 0.088 0.41 0.088 0.878 0 1.083-0.468 3.834-1.405 8.282-0.966 4.448-1.434 7.287-1.434 8.487 0 0.527 0.088 0.79 0.263 0.79s0.761-0.263 1.785-0.761l0.527 1.083c-1.727 1.58-3.278 2.37-4.624 2.37z">
            </path>
            <path
                d="M27.326 26.659c-0.272 0-0.685-0.165-1.241-0.484s-1.004-0.52-1.371-0.626c-0.272 0.284-0.532 0.508-0.78 0.685s-0.414 0.272-0.496 0.272c-0.083 0-0.248-0.142-0.473-0.425-0.213-0.272-0.331-0.484-0.331-0.638 0-0.142 0.13-0.354 0.39-0.626 0.272-0.272 0.579-0.402 0.922-0.402 0.213 0 0.425 0.024 0.626 0.071 0.555-0.437 1.075-1.087 1.571-1.926s0.744-1.571 0.744-2.198c0-0.354-0.106-0.638-0.319-0.839s-0.473-0.295-0.78-0.295c-0.295 0-0.591 0.095-0.874 0.295-0.295 0.201-0.544 0.473-0.744 0.815l-0.544-0.236c0.154-0.496 0.52-0.957 1.075-1.394s1.17-0.65 1.855-0.65c0.673 0 1.205 0.189 1.595 0.555 0.378 0.366 0.567 0.839 0.567 1.394 0 0.402-0.118 0.839-0.343 1.311-0.236 0.484-0.532 0.933-0.898 1.371-0.673 0.792-1.359 1.465-2.032 2.009 0.981 0.272 1.749 0.402 2.28 0.402 0.154 0 0.26-0.047 0.331-0.13s0.177-0.272 0.331-0.567l0.39 0.083c-0.083 1.453-0.567 2.174-1.453 2.174z">
            </path>
        </symbol>
        <symbol id="icon-Title" viewBox="0 0 32 32">
            <path
                d="M11.096 5.404l9.927 0.327 2.794-0.059c0.059 0.416 0.089 0.852 0.089 1.308s-0.079 0.782-0.238 0.981-0.446 0.298-0.862 0.298c-0.040 0-1.436-0.129-4.191-0.386-0.079 0.892-0.377 2.418-0.892 4.577s-1.011 4.468-1.486 6.925c-0.476 2.457-0.723 4.666-0.744 6.628-0.773 0.396-2.358 0.595-4.755 0.595h-0.208c0-1.030 0.565-4.101 1.694-9.214s1.694-8.223 1.694-9.332c0-0.080-0.020-0.218-0.059-0.417h-1.189c-1.624 0-2.873 0.248-3.745 0.743-0.456-0.594-0.733-1.466-0.832-2.615 0.674-0.237 1.674-0.356 3.002-0.356z">
            </path>
        </symbol>
    </defs>
</svg>