<svg aria-hidden="true" style="position: absolute; width: 0; height: 0; overflow: hidden;" version="1.1" xmlns="http://www.w3.org/2000/svg" xmlns:xlink="http://www.w3.org/1999/xlink">
<defs>

<symbol id="icon-optimized" viewBox="0 0 32 32">
    <path fill="currentColor" d="M8.862 26.092v-1.477l0.985-6.4 1.477-8.369-0.985-1.969v-0.985l4.923-0.492v1.969c1.477-1.477 2.954-1.969 3.938-1.969s1.969 0.492 2.462 1.477l0.985 3.446c0 2.954-0.492 4.923-1.477 6.4s-2.462 1.969-3.938 1.969l-1.969-0.492h-0.492v-0.985h0.985l0.985-0.492 0.985-1.969 0.492-3.938c0-1.969 0-2.954-0.985-2.954l-1.969 0.985-0.985 6.892c-0.985 3.446-0.985 6.4-0.985 8.369l-4.431 0.985z"></path>
</symbol>

<symbol id="icon-optimized-var" viewBox="0 0 32 32">
    <path fill="var(--icon-color)" d="M8.862 26.092v-1.477l0.985-6.4 1.477-8.369-0.985-1.969v-0.985l4.923-0.492v1.969c1.477-1.477 2.954-1.969 3.938-1.969s1.969 0.492 2.462 1.477l0.985 3.446c0 2.954-0.492 4.923-1.477 6.4s-2.462 1.969-3.938 1.969l-1.969-0.492h-0.492v-0.985h0.985l0.985-0.492 0.985-1.969 0.492-3.938c0-1.969 0-2.954-0.985-2.954l-1.969 0.985-0.985 6.892c-0.985 3.446-0.985 6.4-0.985 8.369l-4.431 0.985z"></path>
</symbol>
<symbol id="icon-unoptimized" viewBox="0 0 32 32">
    <path d="M9.096 25.992c-0.097-0.234-0.146-0.751-0.146-1.551s0.381-2.951 1.141-6.453c0.761-3.502 1.142-6.2 1.142-8.092 0-0.371-0.088-0.766-0.263-1.185s-0.361-0.746-0.556-0.981l-0.263-0.322 0.030-0.381c0.917-0.292 2.536-0.439 4.858-0.439 0.215 0.41 0.351 0.985 0.41 1.727 1.502-1.229 2.756-1.844 3.76-1.844s1.815 0.419 2.429 1.258c0.615 0.839 0.922 2.068 0.922 3.687 0 2.829-0.517 4.931-1.551 6.307s-2.341 2.063-3.921 2.063c-0.82 0-1.503-0.117-2.049-0.351l-0.293-0.117 0.205-1.141c0.176 0.039 0.381 0.059 0.615 0.059 0.507 0 0.951-0.234 1.331-0.703s0.669-1.063 0.863-1.785c0.39-1.444 0.585-2.78 0.585-4.009 0-1.756-0.361-2.634-1.083-2.634-0.566 0-1.17 0.225-1.814 0.673-0.078 1.366-0.478 3.756-1.2 7.17s-1.083 6.165-1.083 8.253c-1.054 0.429-2.409 0.693-4.068 0.79z"></path>
</symbol>

<symbol id="three-lines" width="500" height="550" xmlns="http://www.w3.org/2000/svg">
    <line x1="30" y1="30" x2="350" y2="290" style="stroke:var(--icon-color-1); stroke-width:3" />
    <line x1="30" y1="50" x2="300" y2="350" style="stroke:var(--icon-color-2); stroke-width:5" />
    <line x1="20" y1="80" x2="100" y2="200" style="stroke:var(--icon-color-3); stroke-width:8" />
</symbol>
</defs>
</svg>
