<svg width="100%" height="100%" viewBox="0 0 64 65" version="1.1" xmlns="http://www.w3.org/2000/svg" xmlns:xlink="http://www.w3.org/1999/xlink" xml:space="preserve" xmlns:serif="http://www.serif.com/" style="fill-rule:evenodd;clip-rule:evenodd;stroke-linejoin:round;stroke-miterlimit:2;">
    <path d="M18.476,52.797c-0.198,-0.476 -0.297,-1.526 -0.297,-3.151c0,-1.625 0.773,-5.994 2.318,-13.107c1.546,-7.114 2.319,-12.593 2.319,-16.437c-0,-0.753 -0.179,-1.555 -0.535,-2.407c-0.357,-0.852 -0.733,-1.516 -1.13,-1.992l-0.535,-0.654l0.06,-0.773c1.862,-0.594 5.152,-0.891 9.868,-0.891c0.436,0.832 0.713,2.001 0.832,3.507c3.051,-2.497 5.598,-3.745 7.638,-3.745c2.041,0 3.686,0.852 4.934,2.556c1.249,1.704 1.873,4.201 1.873,7.49c-0,5.747 -1.05,10.017 -3.151,12.811c-2.1,2.793 -4.755,4.19 -7.965,4.19c-1.665,0 -3.052,-0.237 -4.161,-0.713l-0.595,-0.238l0.416,-2.318c0.357,0.079 0.773,0.119 1.249,0.119c1.03,-0 1.932,-0.476 2.704,-1.427c0.773,-0.951 1.358,-2.16 1.754,-3.626c0.793,-2.933 1.189,-5.647 1.189,-8.144c-0,-3.567 -0.733,-5.35 -2.2,-5.35c-1.149,0 -2.377,0.456 -3.685,1.367c-0.159,2.774 -0.971,7.629 -2.437,14.564c-1.467,6.935 -2.2,12.523 -2.2,16.764c-2.14,0.872 -4.894,1.407 -8.263,1.605Z" style="fill-rule:nonzero;"/>
</svg>